<?xml version="1.0" encoding="iso-8859-1"?>
<!-- Generator: Adobe Illustrator 16.0.0, SVG Export Plug-In . SVG Version: 6.00 Build 0)  -->
<!DOCTYPE svg PUBLIC "-//W3C//DTD SVG 1.1//EN" "http://www.w3.org/Graphics/SVG/1.1/DTD/svg11.dtd">
<svg version="1.1" id="Capa_1" xmlns="http://www.w3.org/2000/svg" xmlns:xlink="http://www.w3.org/1999/xlink" x="0px" y="0px"
	 width="489.331px" height="489.331px" viewBox="0 0 489.331 489.331" style="enable-background:new 0 0 489.331 489.331;"
	 xml:space="preserve">
<g>
	<g>
		<path d="M285.506,366.571H10.001c-4.526,0-8.488-3.041-9.659-7.412c-1.171-4.371,0.74-8.985,4.659-11.248l178.825-103.246
			L5.001,141.42c-3.919-2.263-5.831-6.877-4.659-11.248c1.171-4.372,5.133-7.412,9.659-7.412h275.505c1.755,0,3.479,0.462,5,1.34
			l193.825,111.905c3.094,1.786,5,5.088,5,8.66s-1.906,6.875-5,8.66L290.506,365.231
			C288.985,366.108,287.261,366.571,285.506,366.571z M47.321,346.571h235.505l176.505-101.906L282.826,142.759H47.321
			l161.505,93.245c3.094,1.786,5,5.088,5,8.66c0,3.573-1.906,6.874-5,8.661L47.321,346.571z"/>
	</g>
</g>
<g>
</g>
<g>
</g>
<g>
</g>
<g>
</g>
<g>
</g>
<g>
</g>
<g>
</g>
<g>
</g>
<g>
</g>
<g>
</g>
<g>
</g>
<g>
</g>
<g>
</g>
<g>
</g>
<g>
</g>
</svg>
